<?xml version="1.0" encoding="UTF-8"?>
<svg width="34px" height="34px" viewBox="0 0 34 34" version="1.1" xmlns="http://www.w3.org/2000/svg" xmlns:xlink="http://www.w3.org/1999/xlink">
    <!-- Generator: Sketch 52.6 (67491) - http://www.bohemiancoding.com/sketch -->
    <title>info_button</title>
    <desc>Created with Sketch.</desc>
    <g id="Page-1" stroke="none" stroke-width="1" fill="none" fill-rule="evenodd">
        <g id="Username-Screen" transform="translate(-83.000000, -432.000000)" fill-rule="nonzero">
            <g id="info_button" transform="translate(84.000000, 433.000000)">
                <circle id="Oval" stroke="#000000" stroke-width="2" cx="16" cy="16" r="16"></circle>
                <circle id="Oval" fill="#000000" cx="16" cy="8" r="2"></circle>
                <path d="M15.5037165,14.5902546 C17.2186616,14.5902546 18,16.0208127 18,14.5902546 C18,13.1596965 17.2186616,12 15.5037165,12 C14.9251352,12 14.3426737,12.2153752 13.7563319,12.6461257 C13.2521106,13.0979386 13,13.5593798 13,14.0304493 C13,14.9679426 14,14.9679426 14.054914,14.7706985 C14.0920289,14.6373862 14.4372725,14.248401 14.7425492,14.2377629 C15.0118569,14.2283782 15.2266757,14.5902546 15.5037165,14.5902546 Z" id="Oval-Copy" fill="#000000"></path>
                <path d="M16.6735005,13 L16.6735005,13 C17.5019276,13 18.1735005,13.6715729 18.1735005,14.5 L18.1735005,23.5 C18.1735005,24.3284271 17.5019276,25 16.6735005,25 L16.6735005,25 C15.8450733,25 15.1735005,24.3284271 15.1735005,23.5 L15.1735005,14.5830062 L15.1735005,14.5 C15.1735005,13.6715729 15.8450733,13 16.6735005,13 Z" id="Rectangle" fill="#000000"></path>
            </g>
        </g>
    </g>
</svg>